<?xml version="1.0" encoding="UTF-8" standalone="no"?>
<!-- Created with Inkscape (http://www.inkscape.org/) -->

<svg
   xmlns:dc="http://purl.org/dc/elements/1.1/"
   xmlns:cc="http://creativecommons.org/ns#"
   xmlns:rdf="http://www.w3.org/1999/02/22-rdf-syntax-ns#"
   xmlns:svg="http://www.w3.org/2000/svg"
   xmlns="http://www.w3.org/2000/svg"
   xmlns:sodipodi="http://sodipodi.sourceforge.net/DTD/sodipodi-0.dtd"
   xmlns:inkscape="http://www.inkscape.org/namespaces/inkscape"
   id="svg2"
   version="1.1"
   inkscape:version="0.47pre4 r22446"
   width="900"
   height="900"
   sodipodi:docname="volume-telephone.svg">
  <metadata
     id="metadata8">
    <rdf:RDF>
      <cc:Work
         rdf:about="">
        <dc:format>image/svg+xml</dc:format>
        <dc:type
           rdf:resource="http://purl.org/dc/dcmitype/StillImage" />
        <dc:title></dc:title>
      </cc:Work>
    </rdf:RDF>
  </metadata>
  <defs
     id="defs6">
    <inkscape:perspective
       sodipodi:type="inkscape:persp3d"
       inkscape:vp_x="0 : 0.5 : 1"
       inkscape:vp_y="0 : 1000 : 0"
       inkscape:vp_z="1 : 0.5 : 1"
       inkscape:persp3d-origin="0.5 : 0.33333333 : 1"
       id="perspective10" />
  </defs>
  <sodipodi:namedview
     pagecolor="#ffffff"
     bordercolor="#666666"
     borderopacity="1"
     objecttolerance="10"
     gridtolerance="10"
     guidetolerance="10"
     inkscape:pageopacity="0"
     inkscape:pageshadow="2"
     inkscape:window-width="1013"
     inkscape:window-height="739"
     id="namedview4"
     showgrid="false"
     inkscape:zoom="0.26222222"
     inkscape:cx="-114.12446"
     inkscape:cy="1484.9404"
     inkscape:window-x="1024"
     inkscape:window-y="0"
     inkscape:window-maximized="1"
     inkscape:current-layer="svg2" />
  <path
     style="fill:#000000"
     d="m 263.49153,840.60784 c -17.38921,-6.08579 -31.06251,-15.63915 -49,-34.23568 -43.23218,-44.82055 -69.07474,-118.4788 -77.49184,-220.87215 -1.2424,-15.11461 -2.5016,-57.96482 -2.0523,-69.84119 0.2739,-7.23734 0.7507,-20.35881 1.0596,-29.15881 2.7969,-79.66761 21.0556,-156.37541 48.65255,-204.39751 6.16572,-10.7292 17.67046,-27.3361 23.92033,-34.5288 11.75387,-13.5269 29.83687,-28.5242 42.58723,-35.3201 7.71706,-4.1131 24.30858,-9.6694 25.45384,-8.5242 0.49916,0.4992 0.77054,40.2943 0.62591,91.785 l -0.25532,90.9037 -3,0.6415 c -9.45322,2.0215 -16.01275,7.1599 -20.56353,16.1084 -7.72326,15.1868 -10.51784,30.7884 -14.04344,78.40155 -1.31984,17.82442 -0.69199,63.28207 1.10398,79.93046 0.59332,5.5 1.27445,13.26584 1.51362,17.25741 0.61245,10.22137 4.13927,37.44456 5.99846,46.30146 5.35254,25.49875 12.89282,36.9782 25.39018,38.65445 l 4.10073,0.55002 0,89.36833 0,89.36833 -3.75,-0.0587 c -2.0625,-0.0323 -6.675,-1.08235 -10.25,-2.33351 z m 29,-87.10783 0,-89.5 26.25,0.006 c 14.4375,0.003 27.83745,0.44659 29.77768,0.98561 4.00152,1.11169 11.32776,8.10303 12.91423,12.32391 0.70914,1.8867 1.05809,27.15814 1.05809,76.62788 0,61.56008 -0.23602,74.37253 -1.42183,77.1849 -1.49418,3.54368 -6.56456,8.85602 -10.26243,10.75213 -1.45911,0.74775 -11.50172,1.11957 -30.25,1.11957 l -28.06574,0 0,-89.5 z m 304.05514,-231.99197 -10.32466,-10.49198 4.28023,-4.75802 c 2.35413,-2.61692 4.79077,-5.20803 5.41476,-5.75803 2.86309,-2.52358 13.80236,-15.97782 20.77668,-25.55329 C 642.20276,439.9237 660.68872,398.2123 669.85255,355 c 1.91675,-9.0385 5.70519,-35.5039 5.58273,-39 -0.0482,-1.375 0.23491,-8.9388 0.62905,-16.8083 0.76802,-15.3348 -0.32473,-31.7208 -3.6706,-55.0411 -7.65204,-53.3339 -32.34596,-107.7647 -68.71382,-151.460298 -4.15554,-4.9928 -9.72292,-11.3265 -12.37195,-14.0748 -2.64904,-2.7483 -4.81643,-5.3266 -4.81643,-5.7295 0,-1.0078 19.94164,-20.886 20.95264,-20.886 1.30988,0 19.6498,19.7206 25.85464,27.8011 25.11827,32.711098 44.04428,67.201398 55.63641,101.390298 11.38436,33.5761 17.55197,69.3791 18.0549,104.8086 0.56621,39.887 -3.51764,68.4029 -15.68184,109.5 -7.97107,26.9305 -26.39547,64.30808 -44.60984,90.50001 -12.04679,17.32308 -36.39122,46 -39.05035,46 -0.42722,0 -5.42286,-4.72139 -11.10142,-10.49197 z M 550.62148,475.63041 540.28717,465.2608 550.31574,453.60602 C 578.94218,420.3376 599.17605,378.2626 606.87248,336 c 2.86093,-15.7099 3.68612,-25.8397 3.66769,-45.0231 -0.0309,-32.1913 -4.65296,-56.956 -16.23316,-86.9769 -10.83231,-28.082 -28.16249,-56.3195 -46.83816,-76.3172 -3.83753,-4.1092 -6.97732,-7.9264 -6.97732,-8.4828 0,-1.1685 20.75162,-22.199998 21.90454,-22.199998 0.42206,0 2.51026,1.9125 4.64045,4.249998 43.83767,48.1038 67.7818,100.0805 74.51346,161.75 1.53682,14.079 1.55609,45.0302 0.0361,58 -1.31284,11.2023 -4.16939,27.3654 -6.71583,38 -4.1638,17.3891 -14.91777,45.8681 -22.65666,60 -14.75783,26.9491 -27.02625,44.24852 -43.08281,60.75001 -3.34482,3.4375 -6.55252,6.25 -7.12824,6.25 -0.57571,0 -5.6972,-4.66632 -11.38107,-10.3696 z M 504.48372,429.4922 c -8.02383,-8.0513 -10.24064,-10.8372 -9.48213,-11.9166 0.54447,-0.7748 3.52624,-4.2588 6.62617,-7.7422 16.47343,-18.5111 31.79643,-47.8826 38.35853,-73.5267 7.44259,-29.0848 7.19786,-63.737 -0.64131,-90.8067 -7.29568,-25.1929 -19.61919,-48.9637 -34.73487,-67 -2.76563,-3.3 -6.47589,-7.7372 -8.24503,-9.8605 L 493.14847,164.779 503.988,154.3895 C 509.94973,148.6753 515.4076,144 516.11658,144 c 2.21417,0 17.5411,18.1169 25.96298,30.689 22.10118,32.9925 33.58018,68.4167 35.09749,108.311 1.91377,50.3179 -12.98888,98.5266 -42.04138,136 -7.80385,10.0658 -17.69768,21 -19.0019,21 -0.64789,0 -5.89041,-4.7285 -11.65005,-10.5078 z m -44.76006,-44.7593 c -5.62767,-5.6469 -10.23213,-10.7176 -10.23213,-11.2683 0,-0.5507 1.86874,-3.243 4.15276,-5.9829 11.09806,-13.3133 19.99366,-30.8432 24.47558,-48.2322 3.06854,-11.9054 3.93961,-32.2952 1.91173,-44.7495 -3.70043,-22.7263 -13.88596,-43.9455 -28.90978,-60.2267 l -2.97753,-3.2268 9.89782,-10.2732 c 5.44379,-5.6503 10.51503,-10.6573 11.26942,-11.1266 3.35173,-2.0852 20.11707,19.3997 29.23877,37.4697 22.18441,43.9471 19.03548,101.8665 -7.79387,143.3557 C 484.13453,380.7123 472.34398,395 470.51545,395 c -0.30781,0 -5.16411,-4.6202 -10.79179,-10.2671 z m -167.23213,-89.7321 0,-92.115 28.25,0.3071 c 27.26843,0.2964 28.37547,0.3851 31.86098,2.5527 1.98603,1.2351 4.91103,4.1216 6.5,6.4144 l 2.88902,4.1687 0,78.671 0,78.671 -2.76374,3.9882 c -1.52006,2.1936 -4.67006,5.0802 -7,6.4147 -4.16328,2.3846 -4.71434,2.4317 -31.98626,2.7343 l -27.75,0.308 0,-92.1151 z m 120.50844,43.0077 c -10.74737,-10.7808 -10.82646,-10.8949 -9.14641,-13.1917 9.10647,-12.4493 11.77071,-20.066 11.71517,-33.4918 -0.045,-10.8675 -2.67862,-19.0685 -9.18454,-28.5996 l -4.09118,-5.9936 10.83646,-10.8702 c 5.96005,-5.9786 11.28185,-10.7217 11.82622,-10.5402 1.61281,0.5376 11.22406,13.6164 14.43917,19.6486 1.63686,3.0711 4.17667,9.6217 5.64402,14.5569 2.22073,7.4691 2.67689,10.9844 2.72154,20.9731 0.0894,20.0034 -4.68994,35.3431 -15.65071,50.2323 -7.16062,9.727 -6.62084,9.8039 -19.10974,-2.7238 z"
     id="path2820" />
</svg>
